Patient4_TMGait_0pt4_03_right_03_EMG.mot
version=1
nRows=33
nColumns=33
inDegrees=no
endheader
time	1LAddLong	2LGlutMax	3LGlutMed	4LIliopsoas	5LSemiMemb	6LBicFemLong	7LRecFem	8LVastMed	9LVastLat	10LGasMed	11LTibAnt	12lTibPost	13LPeroneusLong	14LSol	15LExtDigLong	16LFlexDigLong	17RAddLong	18RGlutMax	19RGlutMed	20RIliopsoas	21RSemiMemb	22RBicFemLong	23RRecFem	24RVastMed	25RVastLat	26RGasMed	27RTibAnt	28RTibPost	29RPeroneusLong	30RSol	31RExtDigLong	32RFlexDigLong
3.75	0.021057	0.010529	0.004425	0.004425	0.14236	-0.30014	-0.10773	0.017395	-0.012817	0.009613	-0.00885	0.007019	-0.037689	0.032959	0.006256	0.005951	0.005951	-0.076294	0.086365	0.019836	0.14969	-0.006409	-0.069275	0.003967	0.046844	-0.018921	0.099792	-0.010376	-0.24048	-0.11902	-0.00061	-0.007782
3.751	0.006104	0.076447	0.061035	0.01297	0.10681	-0.13718	-0.079193	0	-0.005341	0.021057	-0.012665	0.004578	-0.070648	0.024109	0.009308	-0.005646	0.000305	0.015564	0.12268	-0.042114	0.089874	0.10483	-0.073242	0.021973	0.041656	-0.016327	0.12222	-0.002899	-0.039063	-0.23651	0.000763	0.004425
3.752	0.007324	0.007477	0.02182	0.011292	0.027618	-0.032654	-0.010681	-0.006561	-0.040741	0.020447	-0.005188	0.005646	-0.062408	0.034637	0.023956	-0.003662	0.010834	-0.044708	0.13397	-0.059814	0.20798	0.15213	-0.061493	-0.025024	0.034485	-0.031433	0.17716	0.019989	0.14206	-0.1207	0.002899	-0.010223
3.753	0.002441	-0.007019	-0.010681	-0.004883	-0.042877	-0.00061	0.053864	-0.002899	-0.041962	0.00351	-0.013123	-0.009003	0.14389	0.048218	0.023193	0.005646	0.018768	-0.060425	0.1831	-0.097198	0.26367	0.07843	-0.018158	-0.026703	0.020447	-0.019989	0.1413	0.004883	0.30563	-0.090179	0.00885	-0.012054
3.754	-0.002594	-0.042725	-0.022583	0.001526	-0.044403	0.000763	0.020142	-0.010376	-0.021362	-0.003357	-0.012054	0.001831	0.048828	0.10452	0.030212	0.007782	0.031128	-0.078125	0.20096	-0.13809	0.29282	-0.001068	-0.034332	-0.078125	-0.00061	-0.037231	0.099792	-0.002747	0.28351	-0.088501	0.000305	-0.017242
3.755	-0.013123	-0.063477	-0.025024	0.00061	-0.082092	0.098877	0.032501	0.006256	0.070496	0.001068	0.004425	0.005951	-0.13779	0.10223	0.00885	0.011292	0.042725	-0.09491	0.1973	-0.065155	0.23865	0.00885	0.016022	-0.1355	-0.023041	-0.045776	0.04837	-0.011139	0.1857	0.06546	-0.000916	-0.017395
3.756	-0.022125	-0.049286	0.082397	0.007782	-0.077209	0.21362	0.065613	0.006561	0.072632	-0.006561	-0.000305	-0.008545	-0.16205	0.10635	-0.00824	0.013733	0.007629	-0.024872	0.18249	0.007629	0.059204	0.041199	-0.017395	-0.093079	0.005798	-0.030975	0.041962	-0.005798	0.089111	0.19882	0.00061	-0.010223
3.757	-0.004578	-0.052032	0.033875	-0.009613	0.002899	0.19424	0.13992	0.021362	0.097351	0.019989	-0.012665	0.000763	-0.25223	0.11002	-0.014343	0.001831	-0.005341	-0.083466	0.21454	0.062103	0.024719	-0.00824	-0.065002	-0.063477	0.009155	0.003204	0.00946	-0.002289	0.10056	0.18143	-0.000916	-0.010834
3.758	0.009155	-0.080719	0.053711	0.009766	0.047607	0.17883	0.13412	0.020447	0.099945	0.027771	-0.001373	-0.007172	-0.17532	-0.029755	-0.033569	-0.007935	0.019531	-0.13001	0.2681	-0.02655	0.15106	-0.077515	-0.016632	-0.12253	0.009918	0.018768	-0.082397	-0.002289	0.12833	0.17578	0.003052	-0.007935
3.759	0.011749	-0.045624	0.032806	0.014038	0.067596	0.1712	0.049286	0.023956	0.09491	0.028229	-0.006256	0.00946	-0.046082	-0.045624	-0.010834	-0.00473	0.018463	-0.14801	0.28214	-0.052185	0.22095	-0.068512	-0.041504	-0.11765	0.015717	0.015869	-0.12955	-0.012054	0.092316	0.15778	0.001373	-0.00885
3.76	0.009155	-0.077209	0.003662	0.00824	0.014801	0.15595	-0.048218	0.018768	0.16876	0.011139	-0.011749	-0.001984	0.42206	-0.030823	0.007477	-0.003357	-0.003357	-0.083313	0.33447	-0.063934	0.17792	-0.097351	-0.022736	-0.085144	0.006561	-0.062561	-0.080872	-0.01358	0.028839	0.010376	0.000916	-0.018616
3.761	0.020142	-0.082092	0.020752	0.008545	0.022583	0.065002	-0.093689	0.015259	0.22263	0.00946	-0.016479	-0.002747	0.1831	-0.016327	0.02243	-0.003967	-0.012817	-0.08667	0.3743	-0.02243	0.12329	-0.1091	-0.027771	-0.005646	0.034332	-0.07309	-0.058136	-0.01236	0.004272	0.11368	0.001373	-0.007935
3.762	0.027313	-0.078278	-0.009003	0.004578	0.12451	-0.048828	-0.009003	0.003967	0.12253	0.003052	-0.010834	0.00061	0.052795	-0.021515	0.014191	-0.00473	-0.014648	-0.00473	0.20783	0.038757	0.10742	-0.074921	-0.086975	0.032043	0.048218	0.014648	-0.029297	0.001068	-0.009918	0.2626	-0.000153	-0.013733
3.763	0.034485	-0.084534	-0.010529	0.001678	0.093384	0.003662	0.005951	-0.012817	-0.073242	0.027618	0.000153	-0.004578	0.007019	-0.041504	-0.011597	-0.005188	-0.003967	0.002594	0.17777	-0.007782	0.043335	0.064392	-0.087585	0.023346	0.035858	-0.032349	0.03418	-0.013885	-0.022125	-0.066986	0.001831	-0.016937
3.764	0.014191	-0.08194	-0.019226	-0.001526	0.024261	0.12955	0.04425	-0.015869	-0.19257	0.015106	0.005188	-0.000458	-0.077515	0.003967	-0.005188	0.000916	0.015411	0.005951	0.1651	0.002441	0.085144	0.15457	-0.058899	-0.025177	0.039368	-0.036469	0.032806	-0.020142	-0.008698	-0.44434	0.004578	-0.013733
3.765	-0.002136	-0.058594	0.018158	0.003204	-0.01236	0.23544	0.032501	-0.00885	-0.13443	-0.007324	0.017853	0.001526	0.064545	0.075531	0.035858	-0.019226	0.022736	-0.090332	0.25528	-0.047455	0.121	0.17151	-0.052338	0.005341	0.022736	-0.026398	-0.018616	0.025482	0.13748	-0.224	0.001984	-0.021973
3.766	-0.005798	-0.066071	0.059357	-0.007782	-0.03952	0.098267	0.045166	-0.002594	-0.004272	0.005798	0.018311	-0.00824	-0.1889	0.13275	0.011749	0.004272	0.03006	-0.077209	0.22888	-0.028687	0.22614	0.085754	-0.053253	-0.01358	0.016327	-0.00412	-0.065155	0.060272	0.43381	-0.25146	-0.002747	-0.022583
3.767	-0.006409	-0.092316	0.049133	-0.010986	-0.005798	0.013123	0.040283	0.000305	0.1294	0.021667	-0.000305	0.009918	-0.045013	0.16861	-0.013123	0.001526	0.013733	-0.12512	0.088654	-0.082245	0.078888	0.068359	-0.056915	-0.004578	0.014038	0.018311	-0.04776	0.024872	0.49881	-0.001678	0.005035	-0.020752
3.768	-0.010376	-0.09079	0.058746	0.019989	0.000916	0.003967	-0.016479	0.003357	0.15976	0.028839	-0.008545	0.016022	0.041809	0.19775	-0.021973	0.020752	-0.003662	-0.10422	0.13596	-0.10376	0.057373	0.028229	-0.046692	-0.013733	0.015259	0.053101	-0.009308	-0.029602	0.31265	-0.62073	0.001068	-0.021362
3.769	-0.007629	-0.061951	0.043793	0.018463	-0.003662	0.039825	-0.041809	-0.007629	0.27695	0.031433	-0.011444	-0.000458	-0.026093	0.028687	-0.023651	-0.003357	-0.015717	-0.091248	0.12848	-0.1535	0.17548	-0.078735	-0.04776	0.005646	0.02655	0.094757	-0.00412	-0.11002	-0.050507	-0.65338	0.001221	-0.019226
3.77	0.009308	-0.036316	0.057526	0.012512	0.020905	0.050812	-0.006714	-0.010071	0.27527	0.022736	-0.00946	0.008087	0.007324	-0.098572	-0.029755	-0.002136	-0.016632	0.005646	0.21545	-0.063629	0.14526	-0.13672	-0.067596	-0.000458	0.033569	0.063324	0.052795	0.019836	-0.36896	0.48553	0.001678	-0.015106
3.771	0.001831	-0.035858	0.043488	0.007629	0.006866	0.1207	-0.005646	0.007477	0.093842	0.025177	-0.00412	0.003204	-0.017853	-0.12711	-0.002136	-0.00885	-0.02655	-0.063934	0.19012	0.020447	0.11917	-0.12512	-0.043488	0.052948	0.016937	0.035858	0.079956	0.045319	-0.52521	0.82993	-0.001068	-0.019684
3.772	-0.00412	-0.072327	0.14603	0.005646	-0.041199	0.16403	-0.02655	0.009766	0.002899	0.000763	0.000763	0.023804	-0.027161	-0.16983	0.011139	-0.00885	-0.037079	-0.036011	0.028839	0.069885	0.10407	-0.005341	-0.071106	0.028992	0.005035	0.019073	0.081635	0.009613	-0.42129	0.53497	0.003815	-0.011292
3.773	-0.017395	-0.10452	0.041809	0.003357	-0.11902	0.27832	-0.021667	0.029144	0.14023	-0.001221	-0.001984	0.022125	-0.041199	-0.12329	0.012512	-0.006256	-0.005341	-0.056458	0.1712	0.11032	0.12451	-0.035553	-0.036163	-0.003204	0.000153	-0.00061	0.06012	0.002594	-0.40543	0.2153	-0.000916	-0.015259
3.774	-0.011139	-0.1297	-0.015106	0.009003	-0.18036	0.2388	-0.062561	0.027313	0.067596	-0.01709	-0.003967	0.019073	0.003662	-0.013428	0.004425	-0.00946	0.032196	-0.1033	0.10727	0.093079	0.10956	-0.033264	-0.014801	-0.059967	-0.019379	-0.01297	0.062256	-0.001984	-0.45258	-0.00946	-0.001678	-0.018921
3.775	-0.007477	-0.12024	-0.11307	0.019379	-0.13367	0.049133	-0.040741	0.018158	-0.11017	-0.020294	-0.007629	0.025787	0.096436	0.13306	0.01297	-0.016327	0.033112	-0.084381	-0.034943	0.049133	0.076141	0.044556	-0.009766	-0.044708	0.002899	-0.017395	0.035706	-0.001678	-0.19608	-0.18066	-0.004578	-0.023346
3.776	0.006409	-0.10971	-0.10132	0.023499	-0.039825	-0.32242	-0.028534	0.004883	-0.2536	-0.01709	0.002289	0.038147	0.1062	0.21011	0.046082	-0.012054	0.024261	-0.09079	-0.10452	-0.083618	0.045166	-0.007324	-0.083771	-0.043182	0.002899	-0.031433	-0.015106	-0.010529	0.27771	-0.11047	0.000763	-0.019989
3.777	0.00351	-0.080719	-0.011444	0.002136	0.058899	-0.32272	0.056763	-0.020752	-0.24399	-0.010223	-0.009766	0.032806	0.10635	0.1976	0.027008	0.008087	0.022278	-0.077057	-0.063477	-0.12421	-0.012054	-0.10834	-0.06073	-0.043182	0.01709	-0.041199	-0.028839	-0.004425	0.46402	-0.11353	0.000458	-0.029297
3.778	-0.012665	-0.14282	0.065002	0.010986	0.084229	-0.30197	0.1268	-0.022736	-0.17944	0.000916	-0.002136	0.038452	0.097198	0.17593	0.014954	0.003815	0.005035	-0.04364	-0.039063	0.011292	0.072937	-0.11078	-0.063782	-0.030212	0.014038	-0.083313	0.039063	-0.013275	0.21439	0.000916	-0.00061	-0.033875
3.779	0.000305	-0.15961	0.088348	0.005493	0.084686	-0.15961	0.17364	-0.01236	-0.1648	0	-0.006256	0.041809	0.010529	0.1857	0.018311	0.000763	0.015259	-0.072937	-0.008392	0.025024	0.13062	-0.067139	-0.050964	-0.018768	0.010376	-0.021973	0.065765	-0.010071	0.037384	0.24323	-0.003357	-0.044403
3.78	-0.000916	-0.15854	0.066833	0.003357	0.056458	0.020905	0.16922	-0.007935	-0.18036	0.023041	-0.01709	0.043488	-0.040741	0.15732	0.00946	-0.002594	0.019226	-0.11444	0.018616	0.064545	0.15808	-0.040436	-0.061035	-0.054321	0.040283	0.020905	0.032196	-0.012665	0.14481	0.42679	0.003204	-0.042114
3.781	0.005341	-0.1236	0.12833	-0.002594	0.021973	0.070648	0.14954	0.00946	-0.29648	0.031281	-0.005798	0.05661	-0.035248	0.19073	0.011444	-0.010071	0.017548	-0.069427	0.022583	0.080261	0.078888	-0.005951	-0.060272	-0.058594	0.050201	0.10941	0.039825	-0.037079	-0.24216	0.14252	0.000305	-0.037231
3.782	0.016937	-0.067139	0.20187	0.005798	0.014191	0.096283	0.10544	0.015411	-0.30151	0.003204	-0.002747	0.059509	-0.041962	0.14679	0.006256	-0.015106	0.00351	-0.092621	-0.049896	0.083923	0.048981	0.007477	-0.081024	-0.032196	0.058136	0.12161	0.041504	-0.024109	-0.38177	-0.51498	-0.000763	-0.04364
